<?xml version="1.0" standalone="no"?>
<!DOCTYPE svg PUBLIC "-//W3C//DTD SVG 20010904//EN"
 "http://www.w3.org/TR/2001/REC-SVG-20010904/DTD/svg10.dtd">
<svg version="1.0" xmlns="http://www.w3.org/2000/svg"
 width="340.000000pt" height="340.000000pt" viewBox="0 0 340.000000 340.000000"
 preserveAspectRatio="xMidYMid meet">
<metadata>
Created by potrace 1.14, written by Peter Selinger 2001-2017
</metadata>
<g transform="translate(0.000000,340.000000) scale(0.100000,-0.100000)"
fill="#000000" stroke="none">
<path d="M1455 3156 c-573 -95 -1029 -478 -1210 -1018 -56 -169 -70 -266 -70
-488 1 -210 14 -301 70 -475 80 -247 274 -528 469 -680 39 -31 76 -59 83 -65
32 -26 135 -87 212 -126 99 -49 234 -96 359 -125 112 -26 380 -36 507 -20 238
31 453 111 657 244 105 70 145 102 239 198 204 208 332 447 400 747 26 114 36
354 20 488 -76 650 -553 1170 -1196 1305 -127 27 -419 35 -540 15z m446 -36
c30 -6 65 -12 79 -15 14 -3 41 -8 60 -11 63 -12 266 -93 356 -143 200 -110
374 -268 516 -466 39 -55 137 -245 163 -315 126 -349 121 -731 -15 -1055 -57
-137 -160 -315 -181 -315 -5 0 -91 61 -191 136 -101 75 -189 139 -195 141 -19
8 -16 19 22 79 80 125 144 341 145 489 0 74 -27 241 -52 315 -26 80 -85 203
-109 229 -11 11 -19 24 -19 29 0 18 -154 173 -219 221 -249 180 -534 231 -850
150 -143 -37 -291 -127 -419 -256 -180 -181 -271 -406 -273 -673 -1 -178 36
-326 121 -473 27 -48 50 -91 50 -95 0 -4 -9 -13 -21 -20 -11 -7 -99 -71 -194
-143 -95 -71 -178 -129 -183 -129 -14 0 -85 114 -137 219 -44 90 -105 263
-127 366 -9 40 -13 135 -12 280 0 190 3 232 21 306 155 620 621 1052 1238
1148 137 22 313 22 426 1z m-17 -555 c236 -55 409 -169 561 -367 152 -200 208
-516 140 -783 -20 -77 -94 -232 -140 -293 -130 -170 -275 -277 -461 -340 -279
-95 -584 -52 -832 116 -66 45 -178 156 -219 218 -15 21 -30 41 -33 44 -12 8
-79 146 -99 203 -30 83 -44 174 -43 292 0 261 90 482 269 658 148 146 324 235
528 268 72 11 249 3 329 -16z m-931 -1823 c9 -8 17 -20 17 -26 0 -7 -3 -7 -8
-1 -4 6 -15 16 -24 23 -14 11 -20 10 -37 -7 -27 -27 -26 -43 0 -59 12 -7 18
-16 15 -19 -7 -7 -56 36 -56 48 0 4 12 21 26 38 26 31 33 31 67 3z m1475 -5
c-28 -23 -37 -47 -18 -47 6 0 20 9 32 20 31 28 58 26 58 -4 0 -26 -41 -66 -68
-66 -8 0 0 10 18 23 19 12 35 28 38 35 5 17 -33 15 -48 -3 -7 -8 -21 -15 -31
-15 -28 0 -24 35 7 59 36 28 46 26 12 -2z m-1488 -39 c0 -6 -6 -5 -15 2 -8 7
-15 14 -15 16 0 2 7 1 15 -2 8 -4 15 -11 15 -16z m113 -35 c-18 -7 -16 -43 2
-43 9 0 15 9 15 23 0 17 2 19 10 7 6 -10 4 -20 -7 -32 -21 -24 -12 -46 10 -23
11 11 24 14 35 9 15 -6 15 -8 -3 -12 -30 -7 -44 -22 -38 -40 6 -15 5 -15 -11
-2 -10 8 -27 19 -39 25 -40 20 -43 41 -11 69 16 14 34 25 39 25 6 0 4 -3 -2
-6z m1267 -1 c0 -5 -11 -14 -25 -20 -28 -13 -36 -46 -8 -35 11 4 14 3 9 -6 -4
-6 -5 -19 -2 -28 6 -14 9 -14 31 1 34 22 45 20 15 -4 -34 -26 -45 -25 -69 9
-28 39 -27 46 12 69 39 25 37 24 37 14z m-1046 -115 c8 -13 7 -21 -6 -34 -14
-14 -23 -15 -52 -6 -26 8 -36 8 -39 -1 -2 -6 -7 -8 -11 -5 -3 3 3 24 14 47 20
42 21 42 52 29 17 -7 36 -20 42 -30z m876 -17 c11 -28 16 -30 44 -25 l31 6
-25 -15 c-14 -9 -30 -15 -36 -16 -10 0 -44 61 -44 81 0 18 17 0 30 -31z m-86
-36 c5 -23 2 -36 -9 -48 -20 -19 -58 -21 -74 -3 -15 19 -27 82 -14 74 6 -4 13
-20 16 -35 6 -30 34 -46 57 -32 9 6 11 21 6 51 -8 50 8 43 18 -7z m-556 -13
c30 19 37 6 24 -43 -9 -36 -11 -38 -10 -13 0 46 -1 48 -16 36 -12 -10 -20 -9
-40 4 -26 17 -26 17 -26 -14 0 -17 -5 -31 -10 -31 -7 0 -8 14 -4 38 9 53 13
56 39 32 20 -19 26 -20 43 -9z m373 9 c22 -12 26 -62 7 -78 -7 -5 -27 -13 -44
-16 -27 -6 -32 -4 -38 16 -8 31 -8 73 1 81 10 10 52 8 74 -3z m-166 -24 c13
-19 14 -28 4 -50 -17 -37 -62 -39 -91 -4 -23 26 -22 34 2 58 27 27 66 26 85
-4z"/>
<path d="M1667 2953 c-4 -27 -9 -80 -13 -119 -7 -83 -10 -81 96 -85 96 -3 108
-1 130 21 21 21 28 84 11 94 -5 3 -7 23 -4 44 4 28 0 41 -15 55 -19 17 -107
37 -168 37 -30 0 -32 -2 -37 -47z m157 -28 c7 -20 -12 -27 -60 -23 -27 2 -40
8 -42 21 -3 14 4 17 46 17 36 0 52 -4 56 -15z m4 -81 c6 -2 12 -13 12 -24 0
-18 -6 -20 -65 -20 -56 0 -65 3 -65 18 0 31 21 42 64 36 23 -3 47 -7 54 -10z"/>
<path d="M1226 2917 c-16 -11 -17 -17 -6 -36 6 -13 10 -24 8 -26 -13 -13 -123
-54 -126 -47 -1 5 -8 17 -15 26 -15 20 -47 12 -47 -13 0 -25 84 -211 95 -211
6 0 17 5 25 10 13 8 12 15 -4 57 -31 82 -33 78 29 101 31 12 60 22 65 22 4 0
18 -25 30 -55 12 -30 26 -55 30 -55 19 0 40 13 40 25 0 12 -24 72 -61 151 -10
22 -19 46 -19 52 0 16 -22 15 -44 -1z"/>
<path d="M2064 2822 c-52 -47 -94 -90 -94 -94 0 -18 37 -27 58 -13 18 13 27
13 77 -7 44 -17 60 -28 67 -49 8 -24 43 -48 52 -37 4 4 -13 250 -18 264 -2 6
-14 14 -26 17 -16 4 -42 -13 -116 -81z m102 -79 c-2 -3 -21 1 -40 8 l-36 13
37 39 38 38 3 -46 c2 -26 1 -49 -2 -52z"/>
<path d="M2406 2698 c-33 -46 -15 -87 59 -138 49 -34 61 -70 24 -70 -21 0
-103 75 -125 114 -13 24 -44 15 -44 -12 0 -25 51 -94 90 -122 18 -12 52 -25
76 -28 56 -6 84 16 84 65 0 35 -9 46 -90 113 -28 23 -33 31 -23 41 10 10 19 8
45 -11 18 -13 38 -31 45 -39 35 -47 38 -49 61 -40 20 8 21 12 11 31 -17 33
-70 87 -101 104 -42 22 -94 18 -112 -8z"/>
<path d="M821 2680 c-79 -58 -101 -130 -60 -196 26 -43 78 -61 134 -45 45 13
59 22 98 69 32 40 35 68 7 75 -15 4 -24 -2 -36 -24 -17 -34 -68 -69 -100 -69
-12 0 -32 8 -44 18 -43 35 -22 104 43 138 18 10 27 22 27 39 0 33 -18 32 -69
-5z"/>
<path d="M2670 2389 c-106 -75 -106 -75 -90 -94 19 -23 37 -19 102 28 112 79
119 87 108 108 -6 10 -16 19 -23 19 -7 -1 -50 -28 -97 -61z"/>
<path d="M572 2418 c-24 -24 -9 -44 78 -100 96 -63 114 -68 129 -39 9 16 -2
27 -89 85 -55 36 -101 66 -103 66 -2 0 -8 -5 -15 -12z"/>
<path d="M2770 2210 c-93 -38 -116 -58 -92 -82 7 -7 35 -2 87 17 41 15 78 26
80 23 3 -2 2 -35 -2 -72 l-6 -68 -54 -23 c-50 -23 -53 -26 -43 -46 14 -25 18
-24 148 23 88 31 92 34 87 58 -9 33 -7 32 -44 19 -18 -6 -33 -10 -35 -8 -2 2
1 36 7 76 11 83 4 123 -21 122 -9 -1 -60 -18 -112 -39z"/>
<path d="M461 2189 c-24 -26 -75 -160 -64 -169 11 -10 203 -80 220 -80 7 0 13
11 13 25 0 18 -7 26 -25 31 -49 12 -18 79 41 90 23 4 38 14 44 28 11 30 -3 40
-39 28 -29 -10 -32 -9 -46 18 -19 36 -43 50 -89 50 -23 0 -42 -7 -55 -21z m89
-54 c9 -11 9 -22 0 -52 -17 -53 -24 -58 -60 -43 -27 11 -31 17 -25 39 15 62
57 90 85 56z"/>
<path d="M1570 2543 c-313 -49 -562 -234 -695 -515 -50 -107 -66 -178 -72
-322 -9 -205 27 -356 119 -506 107 -174 264 -303 463 -381 104 -40 319 -60
438 -40 141 24 284 82 383 156 27 20 85 74 129 119 160 163 239 364 239 610 0
235 -77 429 -243 609 -88 95 -250 198 -371 235 -107 34 -294 50 -390 35z m280
-88 c159 -33 297 -111 420 -235 159 -161 238 -367 228 -594 -10 -221 -85 -386
-248 -546 -106 -104 -202 -161 -342 -201 -97 -29 -111 -30 -243 -26 -124 3
-151 7 -235 35 -211 70 -405 246 -492 447 -54 124 -63 170 -62 325 1 127 4
155 26 226 92 288 308 493 596 564 96 23 254 26 352 5z"/>
<path d="M1585 2363 c34 -80 37 -98 26 -159 -21 -119 -84 -227 -226 -389 -103
-118 -158 -208 -180 -290 -61 -235 73 -427 395 -566 50 -21 95 -39 101 -39 7
0 9 10 5 28 -18 73 -18 160 -1 218 15 53 58 141 75 154 3 3 31 41 62 85 63 91
120 214 138 295 18 83 9 243 -18 311 -49 124 -155 244 -285 322 -84 51 -103
57 -92 30z"/>
<path d="M2047 1748 c-7 -69 -38 -186 -68 -253 -14 -31 -68 -116 -144 -224
-60 -87 -90 -179 -81 -252 11 -86 16 -89 78 -42 29 22 77 57 105 77 166 114
221 189 243 329 11 71 9 99 -17 202 -14 57 -60 174 -73 185 -3 3 -13 15 -22
28 -14 21 -15 19 -21 -50z"/>
<path d="M1010 611 c0 -19 17 -38 25 -29 7 7 -7 48 -16 48 -5 0 -9 -9 -9 -19z"/>
<path d="M1197 551 c-5 -21 10 -31 44 -31 25 0 25 26 0 40 -28 15 -38 13 -44
-9z"/>
<path d="M1820 445 c0 -24 5 -35 14 -35 32 0 46 13 46 41 0 26 -4 29 -30 29
-28 0 -30 -3 -30 -35z"/>
<path d="M1633 454 c-9 -24 10 -49 40 -52 21 -3 28 2 33 22 3 14 3 30 -1 35
-10 17 -65 13 -72 -5z"/>
</g>
</svg>
